# xmcd CD database generated by RipIT
#
# Track frame offsets:
# 150
# 13535
# 24695
# 41210
# 54376
# 67329
# 79473
# 90614
# 110735
# 121520
# 132510
# 142355
#
# Disc length: 2097 seconds
#
# Revision: 0
# Processed by: cddbd v1.5.2PL0 Copyright (c) Steve Scherf et al.
# Submitted via: RipIT 3.5.0-beta-20060208 www.suwald.com/ripit/ripit.html at Thu Sep  6 18:20:49 CEST 2007
#
DISCID=b4082f0c
DTITLE=Judy Collins - Sings Lennon and McCartney
DYEAR=2007
DGENRE=
TTITLE0=And I Love Her
TTITLE1=Blackbird
TTITLE2=Golden Slumbers
TTITLE3=Penny Lane
TTITLE4=Norwegian Wood
TTITLE5=When I'm Sixty Four
TTITLE6=Good Day Sunshine
TTITLE7=Hey Jude
TTITLE8=We can work it out
TTITLE9=Yesterday
TTITLE10=I'll follow the sun
TTITLE11=Long and Winding Road
EXTD=
EXTT0=
EXTT1=
EXTT2=
EXTT3=
EXTT4=
EXTT5=
EXTT6=
EXTT7=
EXTT8=
EXTT9=
EXTT10=
EXTT11=
PLAYORDER=
